<!-- icon666.com - MILLIONS vector ICONS FREE --><svg id="Capa_1" enable-background="new 0 0 512 512" viewBox="0 0 512 512" xmlns="http://www.w3.org/2000/svg" xmlns:xlink="http://www.w3.org/1999/xlink"><g><g><path d="m40 252c0-88.622 52.744-168.194 134.372-202.72l-15.582-36.84c-96.461 40.8-158.79 134.832-158.79 239.56 0 75.05 32.405 148.675 93.534 199.717l-42.859 22.59 18.651 35.386 101.585-53.544-29.021-18.506c-63.801-40.684-101.89-110.083-101.89-185.643zm356-88.361-140-70-140 70v184.722l140 70 140-70zm-140-25.278 75.278 37.639-75.278 37.639-75.278-37.639zm100 185.278-100 50-100-50v-115.278l100 50 100-50zm62.467-263.356 42.859-22.591-18.652-35.385-101.583 53.545 29.021 18.506c63.799 40.684 101.888 110.083 101.888 185.642 0 88.622-52.744 168.194-134.372 202.72l15.582 36.84c96.461-40.8 158.79-134.833 158.79-239.56 0-75.04-32.397-148.666-93.533-199.717z" fill="#fff"></path></g></g></svg>